<svg width="338" height="347" viewBox="0 0 338 347" fill="none" xmlns="http://www.w3.org/2000/svg">
<path d="M201.456 312.525H199.872V314.109H201.456V312.525Z" fill="white"/>
<path d="M200.656 312.197L199.536 313.317L200.656 314.437L201.776 313.317L200.656 312.197Z" fill="white"/>
<path d="M168.735 337.47C261.925 337.47 337.47 261.925 337.47 168.735C337.47 75.5452 261.925 0 168.735 0C75.5452 0 0 75.5452 0 168.735C0 261.925 75.5452 337.47 168.735 337.47Z" fill="#474748"/>
<path d="M153.037 65.9766H150.568V68.4456H153.037V65.9766Z" fill="white"/>
<path d="M151.798 65.468L150.052 67.2139L151.798 68.9597L153.543 67.2139L151.798 65.468Z" fill="white"/>
<path d="M42.1407 237.616H40.5566V239.2H42.1407V237.616Z" fill="white"/>
<path d="M41.3388 237.315L40.2188 238.436L41.3388 239.556L42.4589 238.436L41.3388 237.315Z" fill="white"/>
<path d="M23.0658 152.815H20.9678V154.913H23.0658V152.815Z" fill="white"/>
<path d="M22.0128 152.361L20.5293 153.845L22.0128 155.328L23.4963 153.845L22.0128 152.361Z" fill="white"/>
<path d="M58.0381 71.1006H56.4541V72.6846H58.0381V71.1006Z" fill="white"/>
<path d="M57.2392 70.7501L56.1191 71.8701L57.2392 72.9902L58.3592 71.8701L57.2392 70.7501Z" fill="white"/>
<path d="M72.9961 59.6123H71.4121V61.1963H72.9961V59.6123Z" fill="white"/>
<path d="M72.1982 59.2823L71.0781 60.4023L72.1982 61.5224L73.3182 60.4024L72.1982 59.2823Z" fill="white"/>
<path d="M188.477 93.8447H186.893V95.4287H188.477V93.8447Z" fill="white"/>
<path d="M187.679 93.5177L186.559 94.6377L187.679 95.7578L188.799 94.6377L187.679 93.5177Z" fill="white"/>
<path d="M292.927 208.551H291.807V209.671H292.927V208.551Z" fill="white"/>
<path d="M292.359 208.32L291.567 209.112L292.359 209.904L293.151 209.112L292.359 208.32Z" fill="white"/>
<path d="M244.941 207.199H243.357V208.783H244.941V207.199Z" fill="white"/>
<path d="M244.146 206.91L243.026 208.03L244.146 209.15L245.266 208.03L244.146 206.91Z" fill="white"/>
<path d="M75.0038 182.956H73.8838V184.076H75.0038V182.956Z" fill="white"/>
<path d="M74.4824 182.721L73.6904 183.513L74.4825 184.305L75.2745 183.513L74.4824 182.721Z" fill="white"/>
<path d="M104.756 173.831H103.172V175.415H104.756V173.831Z" fill="white"/>
<path d="M103.958 173.504L102.838 174.624L103.958 175.744L105.078 174.624L103.958 173.504Z" fill="white"/>
<path d="M228.54 133.039H226.955V134.623H228.54V133.039Z" fill="white"/>
<path d="M227.742 132.712L226.622 133.832L227.742 134.952L228.862 133.832L227.742 132.712Z" fill="white"/>
<path d="M188.477 49.2129H186.893V50.7969H188.477V49.2129Z" fill="white"/>
<path d="M187.685 48.9132L186.565 50.0332L187.685 51.1532L188.806 50.0332L187.685 48.9132Z" fill="white"/>
<path d="M128.49 36.249H126.906V37.833H128.49V36.249Z" fill="white"/>
<path d="M127.698 35.9473L126.578 37.0674L127.698 38.1874L128.818 37.0674L127.698 35.9473Z" fill="white"/>
<path d="M229.661 89.7354H228.077V91.3194H229.661V89.7354Z" fill="white"/>
<path d="M228.869 89.4386L227.749 90.5586L228.869 91.6787L229.989 90.5586L228.869 89.4386Z" fill="white"/>
<path d="M262.211 66.999H260.204V69.006H262.211V66.999Z" fill="white"/>
<path d="M261.201 66.5811L259.781 68.001L261.201 69.4209L262.621 68.001L261.201 66.5811Z" fill="white"/>
<path d="M268.676 111.151H267.092V112.735H268.676V111.151Z" fill="white"/>
<path d="M267.87 110.794L266.75 111.914L267.87 113.034L268.99 111.914L267.87 110.794Z" fill="white"/>
<path d="M316.151 143.051H314.567V144.635H316.151V143.051Z" fill="white"/>
<path d="M315.359 142.759L314.239 143.879L315.359 144.999L316.479 143.879L315.359 142.759Z" fill="white"/>
<path d="M279.793 276.554H278.209V278.138H279.793V276.554Z" fill="white"/>
<path d="M278.993 276.227L277.873 277.347L278.993 278.467L280.113 277.347L278.993 276.227Z" fill="white"/>
<path d="M201.456 291.009H199.872V292.593H201.456V291.009Z" fill="white"/>
<path d="M200.656 290.681L199.536 291.801L200.656 292.921L201.776 291.801L200.656 290.681Z" fill="white"/>
<path d="M242.701 301.771H241.117V303.355H242.701V301.771Z" fill="white"/>
<path d="M241.901 301.481L240.781 302.601L241.901 303.721L243.021 302.601L241.901 301.481Z" fill="white"/>
<path d="M153.19 110.558H150.417V113.331H153.19V110.558Z" fill="white"/>
<path d="M151.798 109.984L149.837 111.944L151.798 113.905L153.758 111.944L151.798 109.984Z" fill="white"/>
<path d="M64.7129 131.918H63.1289V133.502H64.7129V131.918Z" fill="white"/>
<path d="M63.915 131.565L62.7949 132.686L63.915 133.806L65.035 132.686L63.915 131.565Z" fill="white"/>
<path d="M32.0791 192.148H30.4951V193.732H32.0791V192.148Z" fill="white"/>
<path d="M31.2812 191.82L30.1611 192.94L31.2812 194.06L32.4012 192.94L31.2812 191.82Z" fill="white"/>
<path d="M209.101 51.4531H207.517V53.0371H209.101V51.4531Z" fill="white"/>
<path d="M208.31 51.1554L207.19 52.2754L208.31 53.3954L209.431 52.2754L208.31 51.1554Z" fill="white"/>
<path d="M70.9069 96.9775H69.5449V98.3395H70.9069V96.9775Z" fill="white"/>
<path d="M70.2209 96.6951L69.2578 97.6582L70.2209 98.6213L71.184 97.6582L70.2209 96.6951Z" fill="white"/>
<path d="M68.7671 150.975C68.6081 151.132 68.4361 151.275 68.2881 151.442Z" fill="white"/>
<path d="M144.279 335.691C150.948 320.083 164.002 292.023 176.501 279.525C194.301 261.725 262.167 260.246 262.167 260.246L272.92 228.905C272.92 228.905 130.703 191.635 129.404 191.821L150.171 211.105C150.171 211.105 105.637 232.954 48.6367 287.132C73.8397 312.692 107.112 330.271 144.279 335.691Z" fill="url(#paint0_linear_341_331)"/>
<path d="M139.77 346.693C139.77 346.693 139.854 346.474 140.012 346.07C139.329 345.96 138.647 345.849 137.967 345.731L139.77 346.693Z" fill="white"/>
<path d="M139.77 346.693C139.77 346.693 139.854 346.474 140.012 346.07C139.329 345.96 138.647 345.849 137.967 345.731L139.77 346.693Z" fill="url(#paint1_linear_341_331)"/>
<path d="M303.823 114.713C286.128 148.24 250.926 171.096 210.381 171.096C152.062 171.096 104.784 123.819 104.784 65.4987C104.784 57.4107 105.697 49.5367 107.418 41.9707C99.6607 56.6677 95.2637 73.4117 95.2637 91.1847C95.2637 149.504 142.541 196.782 200.861 196.782C251.092 196.782 293.129 161.707 303.823 114.713Z" fill="url(#paint2_linear_341_331)"/>
<defs>
<linearGradient id="paint0_linear_341_331" x1="84.5" y1="337.318" x2="232.916" y2="188.902" gradientUnits="userSpaceOnUse">
<stop stop-color="#C4C3C3"/>
<stop offset="1" stop-color="#F9F9F9"/>
</linearGradient>
<linearGradient id="paint1_linear_341_331" x1="116.132" y1="368.948" x2="264.538" y2="220.538" gradientUnits="userSpaceOnUse">
<stop stop-color="#C4C3C3"/>
<stop offset="1" stop-color="#F9F9F9"/>
</linearGradient>
<linearGradient id="paint2_linear_341_331" x1="112.056" y1="37.3318" x2="258.051" y2="183.327" gradientUnits="userSpaceOnUse">
<stop stop-color="#C4C3C3"/>
<stop offset="1" stop-color="#F9F9F9"/>
</linearGradient>
</defs>
</svg>
