<svg width="1200" height="750" viewBox="0 0 1200 750" fill="none" xmlns="http://www.w3.org/2000/svg">
  <rect width="1200" height="750" rx="32" fill="#120F1D"/>
  <rect x="86" y="94" width="1028" height="562" rx="30" fill="#1A1730"/>
  <rect x="138" y="146" width="274" height="458" rx="24" fill="#241E3C"/>
  <rect x="448" y="146" width="614" height="110" rx="24" fill="#262041"/>
  <rect x="448" y="292" width="182" height="144" rx="24" fill="#C198FF" fill-opacity="0.22"/>
  <rect x="664" y="292" width="182" height="144" rx="24" fill="#7B72FF" fill-opacity="0.22"/>
  <rect x="880" y="292" width="182" height="144" rx="24" fill="#C198FF" fill-opacity="0.3"/>
  <rect x="448" y="470" width="614" height="134" rx="24" fill="#211B36"/>
  <rect x="176" y="190" width="196" height="18" rx="9" fill="#C198FF"/>
  <rect x="176" y="236" width="160" height="18" rx="9" fill="#72678F"/>
  <rect x="176" y="310" width="198" height="198" rx="22" fill="#171227"/>
  <path d="M513 200H610" stroke="#E9DDFF" stroke-width="18" stroke-linecap="round"/>
  <path d="M513 220H766" stroke="#655A8A" stroke-width="18" stroke-linecap="round"/>
</svg>
